<?xml version="1.0" encoding="iso-8859-1"?>
<!-- Generator: Adobe Illustrator 19.0.0, SVG Export Plug-In . SVG Version: 6.00 Build 0)  -->
<svg version="1.1" id="Capa_1" xmlns="http://www.w3.org/2000/svg" xmlns:xlink="http://www.w3.org/1999/xlink" x="0px" y="0px"
	 viewBox="0 0 512 512" style="enable-background:new 0 0 512 512;" xml:space="preserve">
<circle style="fill:#434D70;" cx="256" cy="256" r="256"/>
<path style="fill:#F9CB3F;" d="M198.935,67.393c-33.463,137.459,7.91,265.567,92.409,286.138
	c84.499,20.571,180.126-74.187,213.589-211.645s-58.245-58.801-142.743-79.371S232.398-70.066,198.935,67.393z"/>
<path style="fill:#E5B832;" d="M291.338,353.528c-84.501-20.568-125.869-148.676-92.404-286.134
	c19.908-81.786,44.006-75.26,78.053-52.209c-8.339,8.02-16.621,27.375-25.765,64.941
	C217.757,217.582,235.716,339.99,291.338,353.528z"/>
<g>
	<path style="fill:#434D70;" d="M271.592,139.354c17.634,4.292,35.334,0.645,49.362-8.639c-8.841,20.465-31.38,32.2-53.771,26.749
		c-22.391-5.451-37.014-26.232-35.46-48.472C239.915,123.686,253.958,135.061,271.592,139.354z"/>
	<path style="fill:#434D70;" d="M407.328,172.398c17.634,4.292,35.334,0.645,49.362-8.639c-8.841,20.465-31.38,32.2-53.771,26.749
		c-22.391-5.451-37.014-26.232-35.46-48.472C375.651,156.729,389.695,168.105,407.328,172.398z"/>
	<path style="fill:#434D70;" d="M316.533,259.896c-29.698-7.23-59.511-1.087-83.136,14.551
		c14.89-34.468,52.852-54.231,90.561-45.051c37.71,9.18,62.341,44.181,59.721,81.636
		C369.885,286.286,346.232,267.127,316.533,259.896z"/>
</g>
<path style="fill:#F43380;" d="M243.587,511.697c-30.793-1.463-60.165-8.37-87.165-19.79
	c-54.826-23.165-99.892-64.888-127.342-117.3c0,0-0.01,0-0.01-0.01c-8.882-20.48-16.342-42.538-22.006-65.829
	c-3.48-14.305-5.601-26.258-6.531-36.237c-0.01-0.115-0.021-0.24-0.031-0.355c-0.408-4.587-0.564-8.756-0.47-12.528
	c-0.01-0.042-0.01-0.084,0-0.125c1.62-66.351,78.273-12.716,149.776-30.124c84.501-20.574,129.797-132.577,163.255,4.88
	C343.343,358.64,312.351,475.366,243.587,511.697z"/>
<path style="fill:#E02D77;" d="M156.421,491.907c-54.826-23.165-99.903-64.899-127.352-117.311
	c-8.882-20.48-16.342-42.538-22.006-65.829c-3.48-14.305-5.601-26.258-6.531-36.237c0-0.073-0.01-0.146-0.021-0.219
	c-0.418-4.639-0.575-8.85-0.481-12.664c0.815-35.662,23.228-36.791,54.857-32.831c-3.135,11.17-1.327,31.995,7.544,68.472
	C83.477,381.733,119.317,453.684,156.421,491.907z"/>
<g>
	<path style="fill:#434D70;" d="M104.33,337.89c17.634-4.292,35.334-0.645,49.362,8.639c-8.841-20.465-31.38-32.2-53.771-26.749
		c-22.391,5.451-37.014,26.232-35.46,48.472C72.653,353.558,86.696,342.182,104.33,337.89z"/>
	<path style="fill:#434D70;" d="M240.066,304.846c17.634-4.292,35.334-0.645,49.362,8.639c-8.841-20.465-31.38-32.2-53.771-26.749
		c-22.391,5.451-37.014,26.232-35.46,48.472C208.389,320.514,222.433,309.138,240.066,304.846z"/>
	<path style="fill:#434D70;" d="M196.033,429.122c-29.698,7.23-59.511,1.087-83.136-14.551
		c14.89,34.468,52.852,54.231,90.561,45.051c37.71-9.18,62.341-44.181,59.721-81.636
		C249.386,402.733,225.732,421.892,196.033,429.122z"/>
</g>
<g>
</g>
<g>
</g>
<g>
</g>
<g>
</g>
<g>
</g>
<g>
</g>
<g>
</g>
<g>
</g>
<g>
</g>
<g>
</g>
<g>
</g>
<g>
</g>
<g>
</g>
<g>
</g>
<g>
</g>
</svg>
