<svg viewBox="1 -8 511.99995 511" xmlns="http://www.w3.org/2000/svg"><path d="m7.5 116h497v341.546875h-497zm0 0" fill="#ffb655"/><path d="m464.5 171.300781v-2.417969h-29.5v92h29.5v-2.417968c18.171875-6.144532 31.25-23.335938 31.25-43.582032 0-20.246093-13.078125-37.4375-31.25-43.582031zm0 0" fill="#ff7956"/><path d="m491 321.941406 1.707031-1.707031-20.859375-20.863281-65.054687 65.054687 20.859375 20.859375 1.710937-1.707031c17.195313 8.5 38.597657 5.59375 52.914063-8.722656 14.316406-14.316407 17.222656-35.71875 8.722656-52.914063zm0 0" fill="#ff7956"/><path d="m36.910156 146h322.726563v281.546875h-322.726563zm0 0" fill="#c6c5ca"/><path d="m96.542969 383.503906v-193.460937c0-8.28125 6.714843-15 15-15h233.457031c8.285156 0 15 6.71875 15 15v193.460937c0 8.285156-6.714844 15-15 15h-233.457031c-8.285157 0-15-6.714844-15-15zm0 0" fill="#898890"/><path d="m66.542969 383.503906v-193.460937c0-8.28125 6.714843-15 15-15h233.457031c8.285156 0 15 6.71875 15 15v193.460937c0 8.285156-6.714844 15-15 15h-233.457031c-8.285157 0-15-6.714844-15-15zm0 0" fill="#787680"/><path d="m420 168.882812h29.5v92h-29.5zm0 0" fill="#e0e0e2"/><path d="m420 171.300781c-18.167969 6.144531-31.25 23.335938-31.25 43.582031 0 20.246094 13.082031 37.4375 31.25 43.582032zm0 0" fill="#c6c5ca"/><path d="m449.5 171.300781v87.164063c18.171875-6.144532 31.25-23.335938 31.25-43.582032 0-20.246093-13.078125-37.4375-31.25-43.582031zm0 0" fill="#c6c5ca"/><path d="m456.847656 299.367188 20.859375 20.859374-65.054687 65.054688-20.859375-20.859375zm0 0" fill="#e0e0e2"/><path d="m455.140625 301.082031c-17.195313-8.503906-38.601563-5.59375-52.917969 8.722657-14.3125 14.316406-17.222656 35.71875-8.71875 52.914062zm0 0" fill="#c6c5ca"/><path d="m476 321.941406-61.636719 61.636719c17.195313 8.5 38.597657 5.59375 52.914063-8.722656 14.316406-14.316407 17.222656-35.71875 8.722656-52.914063zm0 0" fill="#c6c5ca"/><path d="m38.476562 457.546875h64v29.5h-64zm0 0" fill="#787680"/><path d="m409.527344 457.546875h64v29.5h-64zm0 0" fill="#787680"/><path d="m284.273438 116h-172.003907v-15.449219c5.859375-5.855469 9.144531-9.140625 15-15h142.003907c5.859374 5.859375 9.144531 9.144531 15 15zm0 0" fill="#e0e0e2"/><path d="m7.5 116h30v341.546875h-30zm0 0" fill="#ff7956"/><path d="m36.910156 146h29.996094v281.546875h-29.996094zm0 0" fill="#898890"/><path d="m96.542969 383.503906v-193.460937c0-8.28125 6.714843-15 15-15h-30c-8.285157 0-15 6.71875-15 15v193.460937c0 8.285156 6.714843 15 15 15h30c-8.285157 0-15-6.714844-15-15zm0 0" fill="#3e3d42"/><path d="m420 168.882812h15v92h-15zm0 0" fill="#c6c5ca"/><path d="m403.75 214.882812c0-14.0625 6.308594-26.648437 16.25-35.085937v-8.5c-18.167969 6.148437-31.25 23.339844-31.25 43.585937 0 20.246094 13.082031 37.4375 31.25 43.582032v-8.5c-9.941406-8.433594-16.25-21.019532-16.25-35.082032zm0 0" fill="#898890"/><path d="m464.5 179.796875c-4.371094-3.710937-9.449219-6.621094-15-8.496094v87.164063c5.550781-1.875 10.628906-4.785156 15-8.496094zm0 0" fill="#898890"/><path d="m406.792969 364.425781 57.554687-57.550781-7.5-7.5-65.054687 65.050781 20.863281 20.859375 7.496094-7.5zm0 0" fill="#c6c5ca"/><path d="m417.222656 309.800781c7.070313-7.066406 15.863282-11.351562 25.027344-12.859375-14.128906-2.320312-29.128906 1.964844-40.027344 12.859375-14.3125 14.316407-17.222656 35.722657-8.71875 52.917969l11.175782-11.175781c-2.976563-14.617188 1.207031-30.402344 12.542968-41.742188zm0 0" fill="#898890"/><path d="m429.363281 383.578125 50.460938-50.460937c-.78125-3.839844-2.058594-7.597657-3.824219-11.175782l-61.636719 61.636719c8.703125 4.304687 18.488281 5.683594 27.886719 4.136719-4.433594-.726563-8.78125-2.105469-12.886719-4.136719zm0 0" fill="#898890"/><path d="m38.476562 457.546875h30v29.5h-30zm0 0" fill="#3e3d42"/><path d="m409.527344 457.546875h30v29.5h-30zm0 0" fill="#3e3d42"/><path d="m157.269531 85.550781h-30l-15 15v15.449219h30v-15.449219c5.859375-5.855469 9.140625-9.140625 15-15zm0 0" fill="#c6c5ca"/><path d="m0 108.5v356.546875h512v-356.546875zm497 341.546875h-482v-326.546875h482zm0 0"/><path d="m367.136719 138.5h-337.726563v296.546875h337.726563zm-15 281.546875h-307.726563v-266.546875h307.726563zm0 0"/><path d="m81.542969 406.003906h233.457031c12.410156 0 22.5-10.09375 22.5-22.5v-193.460937c0-12.40625-10.089844-22.5-22.5-22.5h-233.457031c-12.40625 0-22.5 10.09375-22.5 22.5v193.460937c0 12.40625 10.09375 22.5 22.5 22.5zm-7.5-215.960937c0-4.132813 3.363281-7.5 7.5-7.5h233.457031c4.136719 0 7.5 3.367187 7.5 7.5v193.460937c0 4.136719-3.363281 7.5-7.5 7.5h-233.457031c-4.136719 0-7.5-3.363281-7.5-7.5zm0 0"/><path d="m91.542969 366.003906h102.460937v15h-102.460937zm0 0"/><path d="m457 161.382812h-44.5v107h44.5zm-15 92h-14.5v-77h14.5zm0 0"/><path d="m488.3125 320.234375-31.464844-31.46875-75.660156 75.660156 31.46875 31.464844zm-31.464844-10.253906 10.253906 10.253906-54.445312 54.445313-10.253906-10.253907zm0 0"/><path d="m94.976562 479.546875h-49v-7h-14.996093v22h78.996093v-22h-15zm0 0"/><path d="m466.027344 479.546875h-49v-7h-15v22h79v-22h-15zm0 0"/><path d="m106.96875 95.25 10.605469 10.605469 12.800781-12.804688h135.792969l12.804687 12.804688 10.605469-10.605469-17.195313-17.199219h-56l66.945313-66.945312-10.605469-10.605469-74.449218 74.445312-74.441407-74.445312-10.609375 10.605469 66.945313 66.945312h-56.003907zm0 0"/><path d="m405.664062 240.101562c-6.070312-6.996093-9.414062-15.953124-9.414062-25.21875 0-9.265624 3.34375-18.222656 9.414062-25.214843l-11.328124-9.832031c-8.4375 9.722656-13.085938 22.167968-13.085938 35.046874 0 12.878907 4.648438 25.324219 13.085938 35.046876zm0 0"/><path d="m381.390625 338.535156 14.964844 1.058594c.652343-9.238281 4.621093-17.933594 11.171875-24.488281 6.550781-6.550781 15.25-10.519531 24.488281-11.171875l-1.058594-14.964844c-12.84375.910156-24.929687 6.425781-34.035156 15.53125s-14.621094 21.195312-15.53125 34.035156zm0 0"/><path d="m475.164062 249.929688c8.4375-9.722657 13.085938-22.167969 13.085938-35.046876 0-12.878906-4.648438-25.324218-13.085938-35.046874l-11.328124 9.832031c6.070312 6.996093 9.414062 15.949219 9.414062 25.214843 0 9.265626-3.34375 18.222657-9.414062 25.21875zm0 0"/><path d="m461.972656 369.550781c-6.550781 6.554688-15.25 10.523438-24.484375 11.175781l1.058594 14.960938c12.839844-.90625 24.925781-6.421875 34.035156-15.527344 9.105469-9.105468 14.621094-21.195312 15.527344-34.035156l-14.960937-1.0625c-.65625 9.242188-4.621094 17.9375-11.175782 24.488281zm0 0"/><path d="m312.503906 312.546875h-15v-105.003906h-93.167968v-15h108.167968zm-118.167968-105.003906h-15v-15h15zm-25 0h-15v-15h15zm0 0" fill="#fff"/></svg>