<?xml version="1.0"?>
<svg xmlns="http://www.w3.org/2000/svg" id="Layer_1" data-name="Layer 1" viewBox="0 0 512 512" width="512" height="512"><title>Tv Ads</title><path d="M456,176.18V406.86a20,20,0,0,1-20,20H76a20,20,0,0,1-20-20V176.18a20,20,0,0,1,20-20H436A20,20,0,0,1,456,176.18Zm-50.26,38.03A15.79,15.79,0,1,0,389.95,230,15.791,15.791,0,0,0,405.74,214.21Zm0,61.21a15.79,15.79,0,1,0-15.79,15.78A15.791,15.791,0,0,0,405.74,275.42Zm-76.25,99.19V208.42a10,10,0,0,0-10-10H108.3a10,10,0,0,0-10,10V374.61a10,10,0,0,0,10,10H319.49A10,10,0,0,0,329.49,374.61Z" style="fill:#e48e66"/><rect x="378.34" y="426.86" width="42.1" height="32.1" style="fill:#f8ec7d"/><circle cx="389.95" cy="214.21" r="15.79" style="fill:#6fe3ff"/><path d="M389.95,259.63a15.785,15.785,0,1,1-15.79,15.79A15.791,15.791,0,0,1,389.95,259.63Z" style="fill:#6fe3ff"/><rect x="98.3" y="198.42" width="231.19" height="186.19" rx="10" style="fill:#f8ec7d"/><rect x="91.56" y="426.86" width="42.1" height="32.1" style="fill:#f8ec7d"/><path d="M287.911,48.569a6,6,0,0,0-8.472.47l-64.664,72.249-70.6-62.064a6,6,0,1,0-7.922,9.012l75.07,65.991a5.95,5.95,0,0,0,.5.362c.13.093.252.2.387.282a5.865,5.865,0,0,0,.6.289c.129.059.252.134.384.183a5.861,5.861,0,0,0,.72.2c.1.025.207.066.313.085a6.078,6.078,0,0,0,1.059.094h0a6.115,6.115,0,0,0,.62-.032c.054,0,.106-.018.159-.025.153-.019.305-.039.455-.071.072-.015.141-.038.212-.055.131-.033.262-.063.391-.1.077-.024.151-.058.227-.085.12-.044.241-.085.358-.137.082-.036.161-.081.241-.121.108-.053.217-.1.322-.163.085-.048.165-.106.247-.159.1-.062.2-.12.289-.187s.16-.13.241-.195.177-.138.262-.214.151-.151.226-.227.152-.144.223-.223l68.63-76.68A6,6,0,0,0,287.911,48.569Z" style="fill:#6fe3ff"/><path d="M378.95,390.61a6,6,0,0,1-6-6V368.62a6,6,0,0,1,12,0v15.99A6,6,0,0,1,378.95,390.61Z" style="fill:#f8ec7d"/><path d="M400.95,390.61a6,6,0,0,1-6-6V368.62a6,6,0,0,1,12,0v15.99A6,6,0,0,1,400.95,390.61Z" style="fill:#f8ec7d"/><path d="M356.95,390.61a6,6,0,0,1-6-6V368.62a6,6,0,0,1,12,0v15.99A6,6,0,0,1,356.95,390.61Z" style="fill:#f8ec7d"/><path d="M422.95,390.61a6,6,0,0,1-6-6V368.62a6,6,0,0,1,12,0v15.99A6,6,0,0,1,422.95,390.61Z" style="fill:#f8ec7d"/><path d="M241.6,156.03v.15H188.97v-.15a26.315,26.315,0,0,1,52.63,0Z" style="fill:#f8ec7d"/></svg>
