<svg height="512pt" viewBox="0 0 512.00099 512" width="512pt" xmlns="http://www.w3.org/2000/svg"><path d="m404.945312 512c-2.492187 0-4.992187-.621094-7.257812-1.871094l-141.6875-78.324218-141.691406 78.324218c-5.023438 2.777344-11.199219 2.441406-15.894532-.867187-4.695312-3.308594-7.089843-9.007813-6.164062-14.675781l23.929688-146.71875c1.324218-8.117188 8.929687-13.65625 17.070312-12.414063 2.378906.363281 4.816406.546875 7.25.546875 39.976562 0 72.5-32.523438 72.5-72.5 0-12.40625-10.09375-22.5-22.5-22.5h-50c-20.007812 0-37.980469 12.652344-44.726562 31.480469-1.742188 4.867187-5.875 8.496093-10.929688 9.597656-5.050781 1.101563-10.316406-.480469-13.929688-4.179687l-66.652343-68.316407c-3.925781-4.023437-5.269531-9.90625-3.484375-15.234375 1.78125-5.332031 6.398437-9.21875 11.957031-10.066406l158.613281-24.234375 71.074219-151.417969c2.46875-5.265625 7.761719-8.628906 13.578125-8.628906s11.105469 3.363281 13.578125 8.625l71.070313 151.421875 158.617187 24.234375c5.558594.847656 10.171875 4.734375 11.957031 10.0625 1.785156 5.332031.4375 11.214844-3.488281 15.238281l-66.652344 68.316407c-3.609375 3.699218-8.878906 5.277343-13.929687 4.179687-5.054688-1.101563-9.183594-4.730469-10.929688-9.597656-6.742187-18.832031-24.71875-31.480469-44.722656-31.480469h-50c-12.40625 0-22.5 10.09375-22.5 22.5 0 39.976562 32.523438 72.5 72.5 72.5 2.429688 0 4.871094-.183594 7.246094-.546875 8.140625-1.246094 15.746094 4.296875 17.070312 12.414063l23.933594 146.71875c.925781 5.667968-1.46875 11.367187-6.167969 14.675781-2.578125 1.820312-5.601562 2.738281-8.636719 2.738281zm0 0" fill="#ffda44"/><path d="m397.691406 510.128906c2.265625 1.25 4.761719 1.871094 7.253906 1.871094 3.035157 0 6.0625-.917969 8.640626-2.738281 4.695312-3.308594 7.089843-9.007813 6.164062-14.675781l-23.929688-146.71875c-1.324218-8.117188-8.929687-13.65625-17.070312-12.414063-2.378906.363281-4.816406.546875-7.25.546875-39.976562 0-72.5-32.523438-72.5-72.5 0-12.40625 10.09375-22.5 22.5-22.5h50c20.007812 0 37.980469 12.652344 44.726562 31.480469 1.742188 4.867187 5.875 8.496093 10.929688 9.597656 5.050781 1.101563 10.316406-.480469 13.929688-4.179687l66.652343-68.316407c3.925781-4.023437 5.269531-9.90625 3.484375-15.234375-1.78125-5.332031-6.398437-9.21875-11.957031-10.066406l-158.617187-24.234375-71.070313-151.417969c-2.46875-5.265625-7.761719-8.628906-13.578125-8.628906v431.804688zm0 0" fill="#eebf00"/><path d="m321.5 241h-131c-8.285156 0-15-6.714844-15-15s6.714844-15 15-15h131c8.285156 0 15 6.714844 15 15s-6.714844 15-15 15zm0 0" fill="#3a3a3a"/><path d="m284.890625 291h-57.78125c-8.285156 0-15-6.714844-15-15s6.714844-15 15-15h57.78125c8.285156 0 15 6.714844 15 15s-6.714844 15-15 15zm0 0" fill="#3a3a3a"/><path d="m321.5 211h-65.5v30h65.5c8.285156 0 15-6.714844 15-15s-6.714844-15-15-15zm0 0" fill="#282828"/><path d="m284.890625 261h-28.890625v30h28.890625c8.285156 0 15-6.714844 15-15s-6.714844-15-15-15zm0 0" fill="#282828"/><path d="m371.5 351c-48.25 0-87.5-39.25-87.5-87.5 0-20.675781 16.820312-37.5 37.5-37.5h50c34.460938 0 62.5 28.039062 62.5 62.5s-28.039062 62.5-62.5 62.5zm0 0" fill="#4d4d4d"/><path d="m371.5 241c26.191406 0 47.5 21.308594 47.5 47.5s-21.308594 47.5-47.5 47.5c-39.976562 0-72.5-32.523438-72.5-72.5 0-12.40625 10.09375-22.5 22.5-22.5zm0-30h-50c-28.949219 0-52.5 23.550781-52.5 52.5 0 56.519531 45.980469 102.5 102.5 102.5 42.734375 0 77.5-34.765625 77.5-77.5s-34.765625-77.5-77.5-77.5zm0 0" fill="#3a3a3a"/><path d="m140.5 351c-34.464844 0-62.5-28.039062-62.5-62.5s28.035156-62.5 62.5-62.5h50c20.675781 0 37.5 16.824219 37.5 37.5 0 48.25-39.253906 87.5-87.5 87.5zm0 0" fill="#717171"/><path d="m190.5 241c12.40625 0 22.5 10.09375 22.5 22.5 0 39.976562-32.523438 72.5-72.5 72.5-26.191406 0-47.5-21.308594-47.5-47.5s21.308594-47.5 47.5-47.5zm0-30h-50c-42.734375 0-77.5 34.765625-77.5 77.5s34.765625 77.5 77.5 77.5c56.519531 0 102.5-45.980469 102.5-102.5 0-28.949219-23.550781-52.5-52.5-52.5zm0 0" fill="#4d4d4d"/><path d="m256 390.648438c-14.574219 0-28.28125-5.683594-38.597656-16-5.328125-5.328126-5.328125-13.96875 0-19.296876 5.332031-5.328124 13.96875-5.328124 19.300781 0 5.160156 5.160157 12.011719 8.003907 19.296875 8.003907s14.136719-2.84375 19.296875-8.003907c5.332031-5.328124 13.96875-5.328124 19.300781 0 5.328125 5.328126 5.328125 13.96875 0 19.296876-10.316406 10.316406-24.023437 16-38.597656 16zm0 0" fill="#ffae39"/><path d="m294.597656 374.648438c5.328125-5.328126 5.328125-13.96875 0-19.296876-5.332031-5.328124-13.96875-5.328124-19.300781 0-5.160156 5.160157-12.011719 8.003907-19.296875 8.003907v27.289062c14.574219.003907 28.28125-5.679687 38.597656-15.996093zm0 0" fill="#ff9500"/></svg>